<svg width="88" height="88" viewBox="0 0 88 88" fill="none" xmlns="http://www.w3.org/2000/svg">
<path d="M35.5216 6.55924C38.6418 -1.00693 49.3582 -1.00693 52.4784 6.55924C54.4136 11.252 59.7928 13.4802 64.4795 11.5303C72.0359 8.3865 79.6135 15.9641 76.4697 23.5205C74.5198 28.2072 76.748 33.5864 81.4408 35.5216C89.0069 38.6418 89.0069 49.3582 81.4408 52.4784C76.748 54.4136 74.5198 59.7928 76.4697 64.4795C79.6135 72.0359 72.0359 79.6135 64.4795 76.4697C59.7928 74.5198 54.4136 76.748 52.4784 81.4408C49.3582 89.0069 38.6418 89.0069 35.5216 81.4408C33.5864 76.748 28.2072 74.5198 23.5205 76.4697C15.9641 79.6135 8.3865 72.0359 11.5303 64.4795C13.4802 59.7928 11.252 54.4136 6.55924 52.4784C-1.00693 49.3582 -1.00693 38.6418 6.55924 35.5216C11.252 33.5864 13.4802 28.2072 11.5303 23.5205C8.3865 15.9641 15.9641 8.3865 23.5205 11.5303C28.2072 13.4802 33.5864 11.252 35.5216 6.55924Z" fill="#F56AF0"/>
</svg>
